<?xml version="1.0" standalone="no"?>
<!DOCTYPE svg PUBLIC "-//W3C//DTD SVG 20010904//EN"
 "http://www.w3.org/TR/2001/REC-SVG-20010904/DTD/svg10.dtd">
<svg version="1.0" xmlns="http://www.w3.org/2000/svg"
 width="1350.000000pt" height="1350.000000pt" viewBox="0 0 1350.000000 1350.000000"
 preserveAspectRatio="xMidYMid meet">
<metadata>
Created by potrace 1.10, written by Peter Selinger 2001-2011
</metadata>
<g transform="translate(0.000000,1350.000000) scale(0.100000,-0.100000)"
fill="#000000" stroke="none">
<path d="M4750 10849 c-69 -4 -177 -14 -240 -23 -102 -14 -151 -24 -330 -65
-70 -17 -153 -44 -175 -58 -11 -7 -26 -13 -33 -13 -8 0 -79 -31 -158 -70 -78
-38 -147 -70 -152 -70 -5 0 -15 -7 -22 -15 -6 -8 -47 -34 -89 -59 -42 -24 -83
-52 -91 -61 -7 -9 -32 -26 -54 -37 -50 -26 -365 -335 -407 -401 -17 -26 -37
-51 -44 -55 -6 -4 -34 -45 -60 -92 -26 -47 -53 -90 -59 -95 -17 -16 -43 -62
-96 -170 -97 -201 -142 -327 -185 -525 -14 -63 -30 -132 -36 -152 -31 -118
-34 -439 -26 -3118 4 -1240 7 -1365 33 -1478 8 -35 14 -78 14 -97 0 -19 4 -36
9 -39 8 -5 22 -51 27 -91 2 -11 19 -63 39 -115 20 -52 45 -120 55 -150 19 -58
80 -179 149 -295 22 -38 41 -75 41 -82 0 -7 8 -20 18 -30 10 -10 36 -45 57
-77 46 -68 225 -274 312 -358 72 -70 234 -198 251 -198 6 0 12 -4 12 -10 0 -5
30 -26 68 -46 37 -21 80 -48 95 -61 16 -13 33 -23 38 -23 6 0 53 -21 106 -46
114 -54 306 -129 348 -136 17 -3 73 -16 125 -31 52 -14 131 -30 175 -37 44 -6
100 -15 125 -20 60 -12 4231 -17 4249 -5 6 3 57 10 114 15 58 6 158 24 223 40
174 43 395 117 418 140 5 5 17 10 26 10 20 0 123 53 231 118 47 29 90 52 96
52 5 0 34 22 64 48 29 27 74 61 98 77 49 30 288 266 317 311 10 16 37 54 61
84 77 99 108 144 150 215 22 39 59 101 82 139 23 39 41 77 41 85 0 9 11 38 24
66 13 27 34 77 46 110 13 33 26 69 30 80 25 66 62 205 95 360 27 127 31 468
29 2450 -1 1773 -3 1971 -18 2080 -22 163 -35 217 -94 415 -31 103 -90 244
-117 280 -7 8 -18 31 -25 50 -8 19 -34 70 -57 114 -24 44 -43 84 -43 89 0 5
-11 17 -24 28 -13 10 -29 32 -36 49 -7 16 -16 30 -21 30 -5 0 -9 7 -9 15 0 7
-6 18 -13 22 -8 4 -42 43 -76 86 -68 84 -212 233 -276 285 -111 90 -234 179
-303 218 -122 70 -222 123 -243 129 -13 4 -40 15 -59 25 -19 10 -60 26 -90 35
-30 10 -78 26 -105 36 -28 10 -58 19 -68 19 -9 0 -25 4 -35 9 -16 10 -126 35
-282 65 -41 8 -129 18 -195 22 -152 9 -3877 11 -4045 3z m4220 -127 c19 -7 62
-17 95 -22 63 -9 130 -25 180 -42 17 -6 44 -13 60 -15 17 -3 35 -10 42 -15 7
-6 27 -14 45 -18 18 -5 58 -18 88 -30 30 -12 65 -24 77 -27 12 -3 28 -11 34
-19 6 -8 17 -14 24 -14 17 0 137 -65 208 -111 32 -22 61 -39 63 -39 3 0 51
-34 107 -77 108 -81 316 -283 406 -395 52 -65 139 -188 155 -219 4 -8 22 -41
41 -74 51 -92 109 -216 147 -320 31 -83 40 -111 47 -145 4 -19 12 -51 18 -70
21 -68 43 -175 43 -210 0 -19 7 -75 15 -125 13 -77 15 -381 15 -2161 0 -1464
-3 -2088 -11 -2130 -6 -32 -15 -90 -19 -129 -11 -92 -57 -271 -79 -314 -6 -11
-11 -30 -11 -43 0 -13 -7 -32 -15 -42 -8 -11 -15 -28 -15 -37 0 -10 -6 -30
-14 -46 -15 -30 -41 -89 -50 -113 -3 -8 -10 -22 -15 -30 -5 -8 -19 -35 -31
-60 -12 -25 -30 -58 -41 -75 -10 -16 -23 -39 -29 -50 -15 -29 -32 -56 -62 -96
-16 -20 -28 -42 -28 -48 0 -6 -4 -11 -9 -11 -5 0 -19 -16 -31 -35 -12 -20 -27
-41 -33 -48 -7 -7 -30 -35 -52 -62 -124 -158 -394 -384 -560 -470 -27 -14 -84
-44 -125 -65 -41 -22 -82 -40 -91 -40 -9 0 -22 -7 -29 -15 -7 -8 -22 -15 -34
-15 -12 0 -30 -6 -41 -14 -11 -7 -31 -16 -45 -19 -14 -3 -38 -10 -55 -15 -62
-21 -222 -63 -315 -82 -30 -6 -131 -17 -225 -26 -145 -12 -465 -14 -2165 -10
-1114 2 -2028 8 -2070 13 -145 18 -354 66 -472 109 -136 50 -300 124 -363 165
-16 10 -37 22 -45 26 -103 48 -299 200 -436 338 -100 101 -274 310 -274 329 0
2 -18 32 -40 65 -22 33 -45 71 -51 83 -5 13 -25 50 -44 83 -19 33 -37 67 -40
75 -11 28 -37 85 -51 113 -8 16 -14 35 -14 44 0 8 -6 27 -14 41 -17 35 -36 88
-46 132 -4 19 -13 49 -18 65 -19 57 -34 120 -42 185 -4 36 -13 89 -19 119 -15
75 -15 4240 0 4326 6 33 15 92 20 130 11 92 51 256 75 313 8 18 14 41 14 52 0
11 7 36 16 57 9 21 23 53 31 70 7 18 20 47 28 65 7 18 16 40 19 48 3 8 10 22
15 30 5 8 12 22 15 30 4 8 15 29 26 45 11 17 23 37 27 45 3 8 18 33 32 55 46
73 51 80 57 98 3 9 10 17 15 17 6 0 12 8 16 18 18 50 257 310 373 406 67 55
149 116 155 116 4 0 24 12 44 28 40 30 67 47 96 62 11 6 34 19 50 29 29 19 86
48 150 75 75 33 112 49 138 62 16 8 36 14 45 14 9 0 30 7 46 15 15 8 38 15 50
15 11 0 34 7 50 15 15 8 39 15 52 15 14 0 41 7 61 15 19 8 50 15 67 15 17 0
47 5 66 11 19 7 80 15 135 19 55 4 1054 6 2220 6 1677 -1 2127 -4 2155 -14z"/>
<path d="M5065 10221 c-367 -5 -508 -9 -528 -19 -16 -6 -41 -12 -57 -12 -15 0
-52 -7 -81 -16 -30 -8 -79 -22 -109 -30 -30 -9 -68 -22 -83 -30 -16 -8 -34
-14 -40 -14 -11 0 -120 -49 -157 -70 -8 -5 -37 -21 -65 -36 -27 -14 -64 -37
-82 -50 -17 -13 -36 -24 -42 -24 -5 0 -14 -6 -18 -13 -4 -7 -35 -34 -68 -59
-120 -92 -299 -301 -370 -433 -14 -27 -37 -70 -51 -94 -13 -24 -24 -50 -24
-56 0 -7 -7 -18 -15 -25 -8 -7 -15 -22 -15 -34 0 -11 -7 -30 -15 -40 -8 -11
-15 -29 -15 -41 0 -11 -6 -29 -14 -40 -7 -11 -16 -33 -18 -50 -5 -29 -8 -43
-45 -195 -17 -71 -18 -186 -18 -2240 0 -2031 1 -2169 18 -2228 9 -35 17 -75
17 -88 0 -14 5 -34 10 -45 6 -10 14 -38 19 -61 9 -43 23 -86 46 -143 15 -35
115 -238 130 -263 72 -119 164 -235 268 -338 100 -100 188 -174 206 -174 5 0
11 -4 13 -8 4 -10 157 -101 208 -124 19 -9 53 -24 75 -34 22 -9 52 -23 67 -31
14 -7 35 -13 45 -13 10 0 24 -5 30 -11 6 -6 29 -15 50 -20 21 -4 56 -12 78
-18 169 -43 61 -41 2322 -41 1869 0 2146 2 2196 15 32 8 70 15 85 15 15 0 40
7 56 15 15 8 36 15 45 15 17 0 96 24 149 46 17 8 47 20 65 28 187 78 357 194
507 345 84 84 200 221 200 236 0 4 12 24 28 44 38 51 97 161 137 256 7 17 20
46 28 65 22 52 38 101 47 140 4 19 13 48 19 63 6 16 11 42 11 59 0 16 7 55 16
85 14 49 16 273 17 2231 2 2045 1 2180 -15 2222 -10 25 -18 57 -18 72 0 15 -5
39 -11 55 -6 15 -15 44 -19 63 -9 38 -25 85 -48 140 -8 19 -20 49 -27 65 -99
242 -265 464 -460 613 -33 25 -64 52 -68 59 -4 7 -13 13 -19 13 -6 0 -19 7
-28 15 -37 34 -245 138 -355 178 -92 33 -112 39 -150 47 -22 5 -53 13 -68 19
-16 6 -43 11 -60 11 -18 0 -54 7 -82 16 -44 14 -239 16 -1700 18 -907 1 -1875
0 -2150 -3z m3527 -105 c84 -4 128 -17 128 -36 0 -5 -10 -12 -22 -16 -12 -3
-48 -33 -80 -65 l-58 -59 -1 -132 c0 -73 -3 -234 -7 -358 -6 -264 -6 -191 2
-720 18 -1237 14 -1159 64 -1233 40 -58 58 -67 146 -79 102 -14 184 -10 235
13 24 10 48 19 53 19 5 0 46 17 91 39 45 21 114 53 152 71 181 84 412 202 435
223 44 41 67 81 75 132 10 65 12 240 14 1026 1 356 4 649 7 652 10 9 101 -88
135 -143 19 -30 48 -77 66 -104 18 -26 33 -52 33 -58 0 -5 18 -47 39 -91 64
-133 126 -366 132 -497 1 -36 3 -1001 3 -2145 1 -2148 2 -2098 -36 -2280 -6
-27 -14 -54 -18 -60 -4 -5 -13 -28 -20 -50 -7 -22 -19 -50 -27 -63 -7 -12 -11
-27 -8 -33 4 -5 -5 -29 -19 -54 -14 -24 -26 -50 -26 -58 0 -26 -108 -211 -152
-259 -18 -21 -49 -59 -68 -85 -46 -62 -172 -188 -219 -217 -20 -13 -61 -44
-91 -70 -30 -25 -71 -51 -91 -56 -20 -6 -47 -18 -60 -28 -40 -29 -86 -52 -104
-52 -9 0 -28 -9 -42 -20 -14 -11 -32 -20 -40 -20 -8 0 -62 -16 -121 -35 -106
-34 -215 -54 -322 -59 -171 -8 -1417 -4 -1475 5 -11 1 -43 0 -70 -4 -44 -6
-52 -5 -64 14 -11 18 -11 23 0 30 8 5 20 2 30 -7 14 -13 18 -13 29 1 7 8 21
15 31 15 10 0 21 5 24 10 3 6 21 10 40 10 19 0 46 5 62 11 15 6 46 12 68 15
63 6 142 24 240 54 50 15 113 33 140 40 28 7 55 17 60 21 6 4 28 10 50 14 22
4 51 15 65 24 14 9 45 23 70 31 100 30 452 214 565 295 28 19 75 52 105 73 62
42 204 155 295 234 61 54 282 292 312 338 9 14 34 45 55 69 21 24 38 49 38 55
0 6 14 24 30 40 17 16 38 47 47 68 9 21 21 38 25 38 5 0 13 12 18 26 6 14 23
44 38 67 16 23 34 56 41 74 7 18 19 38 27 44 8 6 14 19 14 29 0 10 7 23 15 30
8 7 15 18 15 26 0 7 14 37 31 66 18 29 35 67 40 83 10 41 40 118 76 195 17 36
34 89 37 119 4 30 14 70 23 90 17 37 47 159 62 246 5 28 16 88 24 135 8 47 20
139 26 205 13 142 14 534 1 655 -18 174 -30 258 -45 300 -8 23 -15 60 -15 81
0 21 -4 40 -9 43 -4 3 -11 27 -15 53 -4 27 -13 57 -21 67 -8 11 -15 32 -15 47
0 15 -4 31 -10 34 -5 3 -10 18 -10 32 0 13 -9 36 -20 50 -11 14 -20 31 -20 39
0 7 -12 36 -27 64 -64 120 -73 129 -73 73 0 -23 5 -45 10 -48 6 -3 10 -16 10
-28 0 -12 7 -35 15 -51 8 -15 15 -34 15 -41 0 -8 5 -26 12 -42 13 -31 34 -111
48 -185 5 -26 13 -56 19 -67 6 -11 11 -36 11 -57 0 -20 6 -60 14 -88 44 -155
60 -606 31 -841 -8 -65 -15 -143 -15 -171 0 -29 -5 -65 -11 -80 -5 -16 -14
-58 -19 -94 -10 -67 -23 -128 -43 -190 -6 -19 -14 -53 -18 -75 -13 -66 -31
-128 -45 -157 -8 -14 -14 -35 -14 -46 0 -11 -6 -33 -14 -49 -8 -15 -22 -47
-30 -70 -17 -46 -41 -109 -50 -133 -3 -8 -10 -22 -15 -30 -5 -8 -33 -62 -61
-120 -28 -58 -60 -118 -71 -135 -10 -16 -23 -39 -29 -50 -6 -11 -19 -33 -30
-50 -11 -16 -23 -37 -27 -45 -3 -8 -19 -31 -35 -51 -15 -20 -28 -41 -28 -47 0
-5 -7 -12 -15 -16 -8 -3 -15 -12 -15 -20 0 -8 -4 -16 -9 -18 -5 -1 -32 -34
-62 -73 -114 -151 -302 -341 -460 -468 -74 -60 -309 -225 -339 -240 -8 -4 -35
-19 -60 -33 -50 -29 -267 -138 -318 -160 -18 -7 -47 -20 -65 -27 -55 -25 -110
-45 -167 -62 -30 -10 -70 -24 -88 -31 -18 -8 -43 -14 -55 -14 -12 0 -35 -7
-51 -15 -15 -8 -40 -15 -55 -15 -14 0 -46 -6 -71 -14 -57 -18 -136 -35 -222
-46 -38 -5 -73 -12 -80 -16 -6 -4 -64 -11 -127 -15 -64 -4 -184 -13 -266 -20
-130 -10 -172 -10 -305 5 -85 9 -178 16 -207 16 -29 0 -78 7 -110 15 -31 8
-75 15 -96 15 -21 0 -47 5 -57 10 -10 6 -45 14 -77 20 -82 13 -258 57 -285 71
-10 5 -34 13 -55 18 -49 12 -101 30 -135 47 -14 8 -33 14 -41 14 -9 0 -28 6
-44 14 -30 15 -89 41 -113 50 -8 3 -22 10 -30 15 -8 5 -49 26 -90 46 -41 21
-102 52 -135 71 -33 18 -67 37 -75 41 -79 41 -352 239 -464 337 -103 90 -250
242 -321 331 -22 28 -48 59 -57 69 -10 11 -30 38 -45 60 -15 23 -30 43 -33 46
-3 3 -9 12 -15 22 -5 9 -32 49 -60 89 -51 75 -66 99 -85 134 -6 11 -26 47 -44
80 -48 86 -104 200 -151 310 -41 96 -51 120 -87 220 -32 87 -40 111 -48 148
-4 21 -13 44 -19 50 -6 6 -11 25 -11 42 -1 16 -7 41 -15 55 -8 14 -14 40 -15
58 0 18 -7 49 -15 69 -8 19 -15 50 -15 68 0 17 -7 54 -15 81 -8 27 -15 68 -15
91 0 23 -7 77 -15 120 -21 111 -21 672 0 793 8 47 15 104 15 127 0 23 5 54 11
70 6 15 14 55 19 88 13 85 30 164 46 208 8 20 14 50 14 65 1 15 7 38 15 52 8
14 14 37 15 51 0 14 7 34 15 45 8 10 15 30 15 44 0 14 7 34 15 44 8 11 15 28
15 38 0 9 7 34 16 55 33 78 44 104 58 136 28 61 88 182 122 242 18 33 38 69
44 80 24 45 130 207 141 215 3 3 19 23 33 45 52 77 202 253 300 351 171 171
427 369 591 458 28 15 64 36 80 46 28 17 153 80 185 94 8 3 22 10 30 15 8 5
33 17 55 26 22 10 53 24 68 31 16 8 36 14 45 14 9 0 26 7 36 15 11 8 28 15 39
15 10 0 31 6 45 14 15 7 54 21 87 31 33 9 78 23 100 31 23 8 50 14 60 14 11 0
40 6 65 14 73 23 183 46 217 46 17 0 64 7 104 15 91 19 265 20 1357 9 l823 -9
-1 -740 c-2 -961 -1 -1080 12 -1138 18 -88 -24 -89 -90 -3 -20 27 -75 83 -122
124 -47 41 -96 84 -110 96 -33 29 -172 124 -215 146 -11 6 -47 26 -80 45 -33
19 -67 37 -75 41 -8 3 -42 19 -75 34 -100 46 -135 60 -153 60 -9 0 -26 7 -36
15 -11 8 -31 15 -45 15 -14 1 -37 7 -51 15 -14 8 -38 14 -53 15 -16 0 -38 5
-49 11 -12 6 -48 15 -82 20 -34 5 -81 13 -106 18 -60 13 -493 13 -550 0 -25
-6 -73 -14 -108 -18 -35 -5 -69 -14 -75 -20 -6 -6 -25 -11 -42 -11 -16 -1 -41
-7 -55 -15 -14 -8 -37 -14 -51 -15 -14 0 -34 -7 -45 -15 -10 -8 -27 -15 -36
-15 -16 0 -32 -6 -123 -45 -16 -7 -37 -16 -45 -19 -8 -3 -22 -10 -30 -15 -8
-5 -35 -19 -60 -31 -25 -12 -58 -30 -75 -41 -16 -10 -37 -22 -45 -26 -68 -32
-292 -209 -370 -293 -111 -119 -205 -241 -287 -375 -12 -19 -17 -31 -28 -57
-3 -7 -9 -20 -14 -28 -5 -8 -12 -22 -15 -30 -3 -8 -10 -22 -15 -30 -8 -14 -15
-29 -55 -123 -9 -21 -16 -45 -16 -55 0 -9 -7 -26 -15 -36 -8 -11 -15 -28 -15
-39 0 -11 -7 -42 -16 -71 -9 -28 -22 -71 -30 -96 -8 -25 -14 -59 -14 -75 0
-17 -7 -62 -15 -100 -21 -99 -21 -458 0 -580 9 -49 20 -108 26 -130 6 -22 14
-58 18 -80 4 -22 13 -50 19 -62 7 -12 12 -30 12 -40 0 -10 7 -31 15 -47 8 -15
15 -36 15 -45 0 -10 7 -26 15 -37 8 -10 15 -26 15 -35 0 -22 117 -251 165
-324 22 -33 43 -67 46 -75 21 -48 247 -294 360 -393 43 -37 169 -126 199 -140
8 -4 29 -16 45 -27 17 -10 53 -31 80 -45 28 -14 57 -30 65 -35 27 -16 150 -70
160 -70 5 0 24 -6 42 -14 18 -8 60 -22 93 -31 33 -9 80 -23 105 -31 25 -8 61
-14 80 -14 19 0 58 -7 85 -16 73 -23 537 -24 610 0 28 9 63 16 79 16 27 0 102
18 171 42 17 5 45 14 64 18 18 5 38 13 44 19 6 6 20 11 30 11 10 0 31 6 45 14
15 8 61 31 102 51 81 39 95 47 155 85 22 13 48 29 57 35 42 25 136 91 163 114
118 102 345 352 345 379 0 6 3 12 8 14 11 5 52 66 52 78 0 5 4 10 9 10 5 0 14
12 20 28 7 15 27 54 46 87 19 33 37 67 41 75 13 31 38 86 51 112 7 14 13 34
13 45 0 10 7 27 15 37 8 11 15 29 15 40 0 12 7 30 15 40 8 11 15 33 15 49 0
15 5 38 12 50 7 12 15 45 19 72 4 28 12 75 17 105 41 210 41 469 1 680 -6 30
-14 75 -18 100 -4 25 -13 55 -19 67 -7 12 -12 32 -12 45 0 13 -7 33 -15 44 -8
10 -15 26 -15 35 0 9 -9 28 -21 43 -34 43 -19 60 44 51 28 -4 137 -6 240 -5
125 1 193 -3 202 -10 9 -8 15 -8 20 0 3 5 14 10 24 10 10 0 24 7 31 15 7 8 20
15 29 15 14 0 278 127 291 140 8 8 73 38 98 45 12 3 22 11 22 16 0 5 6 9 13 9
13 0 81 34 101 51 6 5 20 16 31 24 19 14 18 14 -12 15 -18 0 -33 -4 -33 -10 0
-5 -12 -10 -26 -10 -14 0 -44 -13 -67 -28 -23 -16 -62 -34 -87 -42 -25 -8 -53
-22 -63 -32 -10 -10 -26 -18 -36 -18 -10 0 -24 -7 -31 -15 -7 -8 -19 -15 -26
-15 -8 0 -22 -4 -32 -9 -9 -5 -24 -12 -32 -15 -8 -3 -22 -10 -30 -15 -63 -36
-137 -47 -197 -28 -35 12 -62 14 -98 8 -28 -5 -60 -5 -73 0 -55 21 -266 -2
-316 -34 -13 -9 -37 -32 -51 -51 -26 -34 -26 -37 -15 -98 22 -126 28 -154 40
-188 6 -19 13 -48 15 -65 1 -16 9 -57 16 -90 15 -67 19 -471 6 -565 -4 -30
-10 -74 -13 -98 -3 -23 -10 -45 -15 -48 -5 -3 -9 -16 -9 -28 0 -39 -60 -216
-106 -314 -24 -52 -44 -98 -44 -104 0 -24 -133 -233 -225 -354 -50 -65 -222
-233 -276 -268 -24 -17 -57 -42 -74 -57 -16 -15 -52 -39 -80 -54 -27 -15 -57
-33 -65 -40 -19 -17 -168 -85 -185 -85 -7 0 -18 -7 -25 -15 -7 -8 -27 -15 -46
-15 -18 0 -36 -4 -39 -10 -3 -5 -14 -10 -24 -10 -10 0 -38 -11 -62 -23 -132
-70 -566 -104 -794 -61 -214 40 -426 100 -486 139 -20 13 -74 42 -120 65 -109
53 -147 76 -184 110 -16 15 -40 31 -52 35 -13 3 -23 10 -23 14 0 4 -20 22 -44
40 -145 103 -345 347 -445 541 -19 36 -42 76 -52 90 -10 14 -29 59 -43 100
-13 41 -33 93 -44 115 -11 22 -22 58 -26 80 -4 22 -14 58 -22 80 -13 37 -33
143 -54 290 -14 101 -10 365 6 404 8 19 12 41 9 50 -5 15 6 75 38 216 18 76
59 195 90 260 13 28 27 67 30 89 3 21 13 43 21 50 9 6 29 38 45 71 16 33 38
69 50 79 11 11 21 25 21 32 0 7 20 36 45 64 25 28 45 57 45 64 0 16 249 266
265 266 6 0 31 20 55 45 27 27 53 45 67 45 13 0 28 9 35 20 7 11 18 20 25 20
6 0 24 11 40 24 16 13 47 29 70 35 23 6 45 16 48 21 8 12 69 44 122 64 145 53
216 76 234 76 11 0 41 8 67 19 51 20 149 43 197 45 17 1 68 6 115 11 157 16
311 7 510 -32 83 -16 226 -55 256 -71 37 -19 130 -52 146 -52 9 0 20 -5 24
-11 3 -6 34 -24 68 -40 33 -16 88 -45 121 -63 33 -19 67 -37 75 -41 24 -10 33
-16 136 -94 88 -65 131 -102 251 -211 35 -33 94 -60 128 -60 30 0 68 36 97 90
22 43 23 55 24 270 1 124 5 254 9 290 7 54 10 640 6 1178 l-1 133 -46 49 c-25
27 -65 58 -89 70 -42 20 -64 22 -265 18 -14 -1 -81 0 -150 0 -69 1 -136 1
-150 1 -14 0 -108 0 -210 0 -102 1 -221 0 -265 -1 -81 -2 -558 11 -650 18
-100 7 -222 5 -290 -4 -38 -5 -79 -10 -90 -10 -48 -2 -206 -23 -275 -36 -143
-28 -272 -56 -282 -62 -6 -4 -47 -17 -92 -30 -160 -46 -296 -100 -311 -124 -3
-5 -15 -10 -25 -10 -11 0 -36 -7 -57 -16 -39 -17 -49 -22 -168 -86 -38 -21
-92 -49 -120 -63 -27 -14 -81 -47 -120 -75 -38 -27 -95 -66 -125 -87 -57 -39
-131 -93 -155 -115 -8 -7 -38 -33 -66 -58 -135 -119 -361 -353 -407 -420 -13
-19 -31 -42 -40 -50 -9 -9 -21 -23 -27 -32 -5 -9 -32 -50 -60 -91 -109 -162
-190 -295 -222 -362 -18 -38 -42 -86 -53 -105 -11 -19 -20 -40 -20 -47 0 -7
-15 -46 -34 -86 -19 -40 -38 -86 -42 -103 -4 -16 -15 -47 -25 -69 -9 -22 -29
-85 -44 -140 -14 -55 -37 -136 -50 -180 -29 -99 -34 -121 -46 -215 -6 -41 -14
-89 -20 -106 -24 -78 -42 -326 -42 -569 1 -137 4 -281 7 -320 10 -125 54 -380
92 -530 9 -33 22 -85 29 -115 18 -76 52 -184 80 -250 12 -30 32 -82 45 -115
37 -101 111 -266 149 -334 20 -35 55 -100 78 -144 24 -44 54 -94 68 -113 14
-18 25 -35 25 -38 0 -9 112 -169 154 -221 80 -98 239 -280 265 -303 14 -13 67
-62 118 -109 50 -47 104 -93 120 -103 15 -9 39 -29 52 -44 14 -14 30 -26 36
-26 6 0 24 -13 40 -30 16 -16 37 -30 47 -30 10 0 21 -7 25 -15 3 -9 19 -23 35
-31 17 -9 55 -32 86 -52 30 -20 71 -47 91 -58 64 -38 378 -194 390 -194 6 0
38 -13 71 -30 33 -16 69 -30 80 -30 11 0 37 -8 58 -19 20 -10 93 -33 162 -50
68 -18 132 -37 141 -41 8 -5 39 -12 67 -16 29 -4 55 -11 58 -15 3 -5 22 -9 42
-9 20 0 53 -5 72 -10 30 -9 103 -22 278 -48 59 -9 54 -26 -10 -33 -92 -10
-1485 -9 -1656 2 -183 11 -359 45 -403 78 -16 12 -41 21 -56 21 -16 0 -64 18
-107 40 -43 22 -84 40 -92 40 -8 0 -17 6 -20 14 -3 8 -33 28 -67 44 -34 17
-84 54 -111 82 -27 27 -54 50 -62 50 -15 0 -165 152 -221 225 -69 89 -123 178
-174 285 -28 58 -55 113 -60 122 -5 10 -9 26 -9 37 0 10 -7 24 -15 31 -7 6
-17 33 -21 58 -3 26 -10 52 -14 57 -4 6 -11 33 -15 60 -4 28 -12 59 -18 70 -8
14 -12 615 -13 2155 -2 2087 -2 2138 18 2260 11 69 26 139 33 155 7 17 16 48
20 70 15 98 155 377 246 492 68 86 207 229 253 260 23 15 47 36 54 46 7 9 17
17 21 17 5 0 35 17 67 38 33 22 79 47 104 56 25 10 52 24 60 31 48 41 307 124
370 118 8 -1 22 2 31 7 37 20 166 33 379 39 265 7 3565 5 3692 -3z m488 -86
c0 -5 -6 -10 -14 -10 -8 0 -18 5 -21 10 -3 6 3 10 14 10 12 0 21 -4 21 -10z
m65 0 c3 -5 16 -10 27 -10 40 0 145 -41 203 -80 17 -11 37 -20 45 -20 25 0
236 -147 226 -157 -7 -8 -146 63 -146 75 0 7 -14 12 -36 12 -22 0 -47 9 -68
25 -18 14 -39 25 -47 25 -15 0 -216 95 -236 112 -7 6 -10 14 -7 19 7 12 31 11
39 -1z m-173 -96 c15 -8 34 -14 42 -14 8 0 27 -6 43 -14 15 -8 45 -21 66 -30
20 -9 52 -22 70 -30 17 -8 39 -17 47 -20 8 -3 23 -10 33 -16 31 -18 52 -29 95
-50 92 -44 129 -63 187 -95 33 -19 81 -44 108 -57 l47 -23 0 -863 c0 -813 -1
-863 -17 -868 -20 -6 -50 -19 -143 -62 -36 -16 -72 -33 -80 -36 -8 -3 -23 -10
-32 -16 -10 -5 -26 -15 -35 -20 -10 -6 -25 -13 -33 -16 -8 -3 -42 -18 -75 -34
-33 -15 -67 -31 -75 -34 -8 -3 -22 -10 -30 -15 -8 -5 -22 -12 -30 -15 -8 -3
-22 -10 -30 -14 -18 -11 -70 -34 -125 -55 -28 -11 -83 -17 -190 -19 l-150 -3
-3 1224 -2 1224 142 -8 c89 -4 153 -12 170 -21z m-2382 -6864 c0 -5 -13 -10
-30 -10 -16 0 -30 5 -30 10 0 6 14 10 30 10 17 0 30 -4 30 -10z"/>
<path d="M6550 9000 c-25 -5 -72 -9 -105 -10 -33 0 -78 -7 -100 -15 -22 -8
-56 -15 -75 -15 -19 -1 -53 -7 -75 -15 -22 -8 -52 -15 -66 -15 -14 0 -34 -7
-45 -15 -10 -8 -33 -15 -50 -15 -16 0 -39 -7 -50 -15 -10 -8 -27 -15 -36 -15
-17 0 -67 -19 -121 -46 -16 -8 -37 -14 -47 -14 -9 0 -23 -7 -30 -15 -7 -8 -17
-15 -24 -15 -12 0 -195 -91 -241 -121 -16 -10 -39 -23 -50 -29 -104 -52 -361
-265 -492 -407 -105 -113 -273 -337 -273 -363 0 -4 -4 -10 -8 -12 -16 -6 -99
-161 -151 -283 -12 -27 -28 -62 -36 -77 -8 -14 -15 -35 -15 -45 0 -10 -5 -24
-11 -30 -6 -6 -15 -29 -19 -50 -5 -21 -13 -51 -18 -68 -31 -91 -42 -133 -42
-158 0 -16 -5 -38 -12 -50 -6 -12 -15 -53 -19 -92 -5 -38 -13 -101 -19 -140
-12 -79 -6 -483 8 -497 12 -12 22 94 13 128 -4 15 -4 50 0 78 4 28 8 88 8 134
1 45 5 90 10 100 5 9 14 61 20 116 6 54 16 106 21 116 6 10 10 28 10 40 0 12
6 34 14 48 13 25 32 100 43 179 3 18 11 38 19 44 8 6 14 20 14 30 0 11 4 27 9
37 33 61 51 105 51 122 0 11 4 20 9 20 9 0 51 78 51 94 0 4 11 22 25 40 14 18
25 39 25 47 0 21 123 204 166 247 20 20 41 49 46 64 5 15 18 30 28 33 11 3 21
14 24 23 5 15 74 97 107 127 6 6 24 22 39 38 15 15 35 27 43 27 8 0 18 11 21
25 4 14 17 30 30 35 13 5 40 25 60 44 19 20 39 36 44 36 5 0 15 7 23 16 17 21
113 84 128 84 6 0 11 7 11 15 0 8 46 37 113 69 61 31 137 69 167 85 30 16 66
34 80 39 14 5 48 19 75 30 74 31 165 63 205 72 19 4 62 15 95 25 33 9 69 14
81 11 13 -4 27 0 34 10 7 8 20 12 28 9 8 -3 20 -1 26 3 10 8 34 13 131 28 86
13 455 12 540 -1 221 -35 398 -74 417 -93 6 -6 23 -12 37 -12 26 0 131 -36
206 -70 22 -10 59 -26 83 -36 23 -9 42 -21 42 -26 0 -4 8 -8 18 -8 9 0 31 -9
47 -21 17 -11 40 -24 53 -29 12 -6 54 -30 92 -55 38 -25 75 -45 83 -45 8 0 38
-16 67 -35 59 -40 90 -45 90 -15 0 11 -3 20 -7 20 -5 0 -26 16 -48 35 -69 60
-151 113 -232 150 -17 8 -34 19 -38 25 -3 5 -15 10 -25 10 -10 0 -20 4 -22 8
-4 11 -85 52 -102 52 -7 0 -19 7 -26 15 -7 8 -22 15 -34 15 -11 0 -30 7 -40
15 -11 8 -29 15 -40 15 -12 0 -30 7 -40 15 -11 8 -29 15 -40 15 -12 0 -30 7
-40 15 -11 8 -32 15 -47 15 -15 0 -40 7 -55 15 -16 8 -41 15 -55 15 -15 0 -43
7 -62 15 -20 8 -52 15 -71 15 -19 0 -47 5 -63 11 -67 26 -517 47 -613 29z"/>
<path d="M6428 8289 c-43 -4 -85 -12 -95 -17 -10 -5 -38 -13 -62 -17 -25 -4
-74 -18 -110 -32 -36 -14 -80 -28 -96 -32 -60 -15 -206 -96 -253 -141 -27 -25
-60 -63 -74 -85 -36 -57 -28 -92 36 -158 52 -54 65 -61 221 -117 50 -18 113
-48 142 -66 28 -19 54 -34 57 -34 21 0 165 -142 186 -183 11 -23 30 -57 42
-76 27 -43 39 -181 16 -181 -8 0 -25 -12 -39 -26 -28 -30 -70 -54 -95 -54 -19
0 -105 55 -147 94 -15 14 -34 26 -41 26 -7 0 -48 19 -92 43 -43 23 -115 51
-159 62 -44 11 -99 30 -122 43 -54 30 -103 96 -103 138 0 18 -4 36 -10 39 -5
3 -10 18 -10 33 0 39 -31 112 -47 112 -8 0 -24 12 -37 27 -23 27 -24 27 -80
13 -31 -7 -56 -17 -56 -21 0 -4 -21 -27 -46 -51 -38 -36 -74 -86 -134 -188
-57 -98 -82 -146 -105 -205 -15 -38 -35 -86 -45 -105 -26 -52 -60 -197 -62
-265 -2 -73 21 -126 75 -169 61 -48 109 -39 268 51 161 91 237 120 339 129
144 12 347 -29 388 -78 11 -14 14 -41 11 -109 -1 -14 -13 -43 -28 -64 -25 -37
-31 -40 -100 -52 -128 -21 -251 -68 -362 -139 -80 -51 -139 -80 -179 -89 -30
-7 -96 19 -165 65 -98 64 -133 64 -196 1 l-49 -48 0 -80 c0 -44 5 -105 11
-134 6 -30 12 -61 13 -69 1 -8 5 -22 9 -30 22 -50 67 -186 67 -205 0 -11 4
-25 9 -31 5 -5 26 -43 46 -84 21 -41 45 -84 54 -95 10 -11 35 -49 56 -85 40
-66 54 -81 115 -124 58 -41 80 -42 129 -3 51 40 71 89 91 217 36 236 135 403
310 523 120 82 175 101 219 77 24 -12 121 -156 121 -179 0 -9 -12 -28 -26 -42
-96 -88 -234 -330 -234 -409 0 -16 -4 -31 -9 -35 -5 -3 -15 -22 -22 -43 -6
-20 -18 -45 -26 -54 -8 -9 -22 -31 -31 -49 -12 -23 -38 -44 -95 -73 -81 -43
-156 -115 -157 -150 0 -29 54 -107 102 -147 49 -40 151 -109 163 -109 12 0
156 -73 161 -82 3 -4 14 -8 25 -8 11 0 53 -11 93 -24 95 -32 293 -76 343 -76
34 0 133 98 133 131 -1 30 -28 86 -59 121 -23 26 -36 46 -62 96 -7 12 -18 22
-26 22 -7 0 -13 10 -13 23 0 13 -4 27 -10 33 -5 5 -23 43 -41 84 -29 70 -32
86 -39 235 -4 88 -4 169 0 180 4 11 11 47 15 80 7 64 34 119 66 136 14 7 37 6
77 -2 31 -6 71 -12 87 -13 74 -6 85 -29 89 -201 1 -57 7 -109 12 -117 6 -7 25
-53 43 -103 19 -49 40 -97 47 -106 8 -9 28 -45 45 -80 52 -105 41 -191 -41
-312 -55 -83 -10 -159 113 -186 38 -9 163 8 232 31 17 5 47 14 69 19 36 9 96
35 286 126 66 32 129 79 221 165 17 16 29 41 34 67 7 40 5 45 -31 83 -39 40
-123 88 -155 88 -10 0 -30 6 -46 14 -15 8 -48 24 -73 36 -147 70 -207 109
-294 196 -37 38 -75 82 -83 99 -9 16 -35 56 -59 87 -47 62 -77 124 -68 139 3
5 24 19 46 32 72 39 79 44 94 66 16 23 64 51 87 51 8 0 40 -25 73 -55 32 -31
79 -67 104 -81 25 -13 68 -38 95 -54 28 -16 59 -30 70 -30 11 0 58 -20 105
-43 74 -37 90 -50 123 -99 25 -38 41 -76 47 -113 14 -85 43 -164 63 -171 9 -3
17 -11 17 -19 0 -7 14 -18 30 -24 36 -12 83 1 117 33 74 70 128 135 158 191
14 28 30 57 34 65 31 52 73 154 86 208 9 34 21 75 27 90 6 15 12 38 14 52 1
14 8 45 14 70 16 61 14 88 -8 141 -33 76 -37 78 -160 74 -59 -2 -126 -8 -147
-13 -217 -57 -339 -60 -560 -14 -49 11 -114 43 -138 69 -16 18 -16 26 -4 99
12 72 16 80 43 93 16 8 49 15 74 16 55 2 186 31 260 57 30 11 69 24 85 28 17
5 70 23 118 39 103 35 121 34 222 -16 38 -19 87 -41 108 -48 l40 -14 45 43
c41 39 45 48 49 97 4 53 -13 161 -37 229 -7 19 -24 64 -38 100 -13 36 -33 90
-44 120 -11 30 -28 64 -39 76 -10 11 -19 25 -19 31 0 6 -18 33 -40 61 -22 27
-40 57 -40 66 0 9 -8 16 -19 16 -11 0 -22 6 -24 13 -4 8 -6 7 -6 -3 -1 -8 15
-49 35 -90 19 -41 45 -95 55 -120 11 -25 24 -53 30 -62 5 -10 9 -25 9 -34 0
-9 6 -30 14 -47 15 -36 34 -102 45 -162 4 -22 13 -58 19 -80 17 -64 33 -175
27 -185 -13 -21 -37 -8 -93 48 -65 65 -132 102 -187 102 -34 0 -55 -7 -140
-45 -16 -7 -48 -21 -70 -30 -22 -9 -53 -23 -68 -31 -16 -8 -33 -14 -39 -14 -5
0 -24 -6 -41 -13 -63 -27 -174 -47 -260 -47 -84 0 -90 1 -118 29 -16 16 -29
36 -29 44 0 15 41 47 60 47 11 0 194 88 235 113 81 49 119 79 186 146 75 75
139 163 154 211 4 14 23 48 41 76 26 40 34 62 34 98 0 25 -3 46 -7 46 -5 -1
-28 -28 -53 -61 -131 -176 -243 -310 -269 -323 -16 -9 -31 -21 -34 -28 -2 -8
-24 -27 -48 -42 -24 -16 -56 -38 -72 -48 -15 -10 -32 -16 -37 -13 -6 3 -25 -5
-43 -19 -38 -29 -98 -56 -124 -56 -22 0 -99 103 -95 125 5 26 110 168 147 200
15 13 45 70 45 86 0 7 6 20 13 28 7 9 21 36 31 61 10 25 22 53 27 62 11 21 57
151 68 193 16 56 56 117 103 157 53 44 59 58 26 58 -69 -1 -198 -76 -198 -116
0 -13 -4 -25 -9 -29 -9 -5 -28 -42 -65 -128 -9 -21 -16 -48 -16 -60 0 -13 -7
-32 -15 -43 -8 -10 -15 -26 -15 -35 -1 -56 -141 -251 -254 -356 -71 -65 -91
-93 -65 -93 14 0 139 -129 139 -144 0 -7 5 -17 12 -24 28 -28 67 -192 68 -282
0 -120 -53 -263 -140 -373 -22 -27 -119 -99 -160 -118 -111 -52 -118 -53 -259
-52 -105 0 -143 4 -166 17 -16 9 -35 16 -42 16 -7 0 -46 23 -87 51 -92 62
-184 162 -211 229 -4 8 -13 30 -21 48 -8 18 -14 39 -14 47 0 19 -31 19 -56 0
-10 -8 -27 -15 -36 -15 -31 0 -238 -98 -238 -112 0 -5 -4 -8 -10 -8 -42 0
-253 -235 -286 -320 -3 -8 -12 -28 -19 -45 -29 -68 -38 -104 -47 -185 -12
-107 -14 -175 -4 -222 7 -37 6 -38 -23 -38 -22 0 -32 6 -36 22 -4 11 -30 55
-58 97 -76 113 -144 244 -189 366 -33 88 -40 112 -48 150 -4 22 -12 53 -19 68
-6 16 -11 44 -11 62 0 19 -6 52 -14 72 -21 56 -26 87 -17 101 12 20 52 0 91
-47 42 -51 119 -100 180 -116 66 -17 120 1 236 77 55 35 119 75 144 87 25 13
53 28 64 33 49 26 132 41 251 47 l129 6 1 80 c1 103 10 148 42 212 14 28 23
58 20 66 -9 23 -165 102 -262 133 -84 27 -372 27 -424 1 -19 -9 -41 -17 -49
-17 -20 0 -156 -66 -197 -94 -16 -12 -37 -25 -47 -31 -9 -5 -42 -28 -74 -49
-42 -29 -61 -37 -72 -29 -32 20 -36 39 -20 95 23 76 39 138 45 178 3 19 12 44
19 55 8 11 14 29 14 41 0 12 7 27 15 34 8 7 15 18 15 25 0 12 18 52 42 95 4 8
11 22 14 30 12 31 15 36 34 65 11 17 23 37 27 45 3 8 19 31 35 51 15 20 28 42
28 48 0 6 3 11 8 11 4 0 18 20 32 45 14 25 28 45 31 45 4 0 10 11 13 25 4 16
13 25 27 25 19 0 20 -6 18 -87 -5 -236 84 -355 286 -380 22 -2 54 -11 72 -19
17 -8 38 -14 46 -14 9 0 28 -7 44 -14 15 -8 35 -18 43 -21 28 -11 137 -82 161
-105 9 -8 27 -24 40 -36 13 -11 38 -37 56 -57 l32 -37 64 65 c36 36 80 72 99
80 18 9 40 19 48 25 8 5 26 11 40 14 14 3 34 11 44 19 17 12 18 19 9 43 -6 16
-18 58 -28 94 -18 70 -41 136 -56 160 -5 8 -14 26 -20 40 -16 38 -87 131 -133
173 -45 42 -145 113 -179 127 -12 6 -29 14 -37 19 -45 25 -142 61 -195 71
-137 26 -193 82 -127 126 67 46 223 123 317 157 96 35 112 40 150 47 43 8 81
17 218 49 123 30 136 17 62 -59 -25 -25 -45 -49 -45 -54 0 -5 -6 -17 -13 -25
-16 -19 -47 -115 -47 -145 0 -13 7 -45 16 -72 20 -62 20 -63 43 -99 20 -31 78
-146 102 -200 28 -65 41 -146 48 -290 l6 -150 99 -3 c66 -2 106 -8 120 -17 11
-8 27 -15 35 -15 8 0 23 -8 34 -17 18 -17 20 -17 43 12 13 17 24 34 24 38 0 5
11 23 24 40 28 38 96 181 96 203 0 8 5 25 12 37 6 12 17 69 24 125 11 86 11
120 -1 195 -14 94 -35 164 -60 201 -8 11 -15 28 -15 37 0 17 -54 128 -82 168
-28 40 -32 17 -15 -71 9 -46 22 -114 28 -153 6 -38 13 -81 15 -95 27 -151 26
-277 0 -376 -20 -72 -83 -189 -110 -203 -31 -17 -95 0 -134 37 -25 23 -31 38
-36 92 -9 84 -41 214 -64 265 -11 22 -35 74 -54 115 -68 146 -71 156 -65 210
4 28 13 65 22 82 8 17 15 41 15 54 0 13 4 25 9 28 5 3 14 27 20 52 12 47 12
47 -21 77 -52 48 -99 77 -122 76 -12 -1 -56 -5 -98 -10z m1940 -1992 c19 -22
-30 -232 -84 -362 -38 -92 -107 -236 -132 -277 -21 -33 -93 -140 -104 -153 -5
-5 -17 -22 -29 -37 -11 -16 -29 -28 -39 -28 -18 0 -19 8 -17 118 2 91 -2 128
-16 165 -17 49 -100 147 -123 147 -6 0 -25 7 -40 15 -16 8 -39 15 -50 15 -12
0 -35 7 -50 15 -16 8 -41 15 -56 15 -15 0 -29 4 -32 9 -3 5 -18 12 -33 15 -28
7 -89 34 -108 49 -5 4 -47 35 -92 67 -102 74 -124 108 -84 129 15 8 24 6 42
-13 52 -51 183 -108 294 -128 81 -16 286 -21 298 -9 6 6 25 11 43 11 40 0 96
19 88 31 -8 14 -91 10 -131 -6 -19 -8 -66 -15 -103 -15 -37 0 -87 7 -110 15
-23 8 -61 15 -84 15 -22 1 -52 7 -66 15 -14 8 -34 14 -45 15 -11 0 -33 7 -49
15 -15 8 -34 15 -41 15 -7 0 -18 7 -25 15 -7 8 -23 15 -36 15 -13 0 -24 5 -24
11 0 7 -7 17 -16 23 -19 15 -8 46 16 46 10 0 45 -13 77 -29 196 -99 454 -114
713 -40 25 7 51 19 59 27 10 10 26 12 52 8 34 -5 41 -2 76 34 42 44 46 45 61
27z m-1962 -268 c19 -11 34 -28 34 -36 0 -9 -19 -54 -42 -102 -23 -47 -45
-105 -50 -128 -4 -24 -12 -64 -17 -90 -15 -76 -13 -262 4 -326 8 -32 15 -64
15 -72 0 -28 73 -171 120 -235 27 -36 74 -88 105 -117 32 -28 55 -57 53 -65
-6 -16 -66 -13 -126 8 -23 8 -56 14 -72 14 -16 0 -41 5 -57 11 -15 6 -44 15
-63 19 -34 8 -64 17 -145 48 -63 23 -175 74 -205 92 -8 5 -58 35 -110 66 -105
62 -120 76 -113 104 4 15 14 20 42 21 44 0 125 27 166 54 38 25 83 80 98 120
19 50 37 118 37 139 0 15 7 43 15 63 8 19 15 42 15 50 0 25 78 177 119 232 52
69 124 149 135 150 5 1 24 -8 42 -20z m522 -131 c11 -24 28 -61 38 -83 29 -67
116 -208 154 -249 30 -33 82 -84 124 -121 18 -16 69 -51 86 -58 8 -4 29 -16
45 -27 17 -11 37 -23 45 -26 8 -3 29 -12 45 -19 106 -47 185 -68 252 -69 43
-1 58 -5 60 -16 4 -17 -98 -95 -182 -140 -11 -6 -33 -19 -50 -29 -42 -27 -109
-61 -121 -61 -6 0 -15 -5 -22 -12 -12 -12 -63 -33 -117 -48 -16 -4 -43 -13
-60 -18 -68 -23 -143 -41 -189 -46 -26 -3 -69 -13 -94 -21 -28 -10 -49 -12
-55 -6 -12 12 13 48 57 84 47 36 90 101 105 159 11 39 11 56 -2 105 -8 32 -24
74 -36 93 -11 19 -25 44 -31 55 -6 11 -19 34 -29 50 -19 29 -48 87 -75 150
-23 54 -37 118 -46 220 -12 124 -7 155 25 155 13 0 27 5 30 10 12 19 23 10 43
-32z"/>
<path d="M8078 6123 c-29 -7 -21 -23 11 -23 34 0 49 15 25 24 -9 3 -16 5 -17
5 -1 -1 -10 -3 -19 -6z"/>
<path d="M6915 5740 c-7 -12 2 -30 16 -30 12 0 12 27 0 35 -5 3 -12 1 -16 -5z"/>
<path d="M6942 5674 c1 -9 9 -19 16 -22 9 -3 13 2 10 14 -1 9 -9 19 -16 22 -9
3 -13 -2 -10 -14z"/>
<path d="M6970 5623 c0 -5 4 -15 10 -23 11 -18 25 -7 17 15 -6 15 -27 21 -27
8z"/>
<path d="M7007 5584 c-8 -9 23 -64 56 -99 15 -16 27 -33 27 -37 0 -5 7 -8 15
-8 8 0 15 -7 15 -15 0 -8 6 -15 14 -15 8 0 16 -7 20 -15 3 -8 10 -15 16 -15 5
0 10 7 10 15 0 8 -7 15 -15 15 -8 0 -15 7 -15 15 0 8 -7 15 -15 15 -8 0 -15 5
-15 10 0 6 -8 18 -17 29 -38 40 -73 83 -73 91 0 12 -16 21 -23 14z"/>
<path d="M7220 5340 c0 -5 9 -10 21 -10 11 0 17 5 14 10 -3 6 -13 10 -21 10
-8 0 -14 -4 -14 -10z"/>
<path d="M7074 8203 c10 -11 76 -34 136 -48 62 -15 112 -32 150 -52 14 -7 32
-13 40 -13 8 0 24 -7 34 -15 11 -8 28 -15 38 -15 10 0 18 -4 18 -9 0 -5 10
-13 23 -17 12 -3 48 -24 79 -45 59 -40 128 -73 136 -65 7 7 -70 86 -84 86 -6
0 -17 7 -25 16 -29 35 -340 164 -396 164 -23 0 -45 5 -48 10 -3 6 -29 10 -57
10 -28 0 -48 -3 -44 -7z"/>
<path d="M7223 7953 c-33 -6 -28 -25 15 -53 20 -14 39 -27 42 -30 10 -10 69
-50 74 -50 3 0 24 -13 48 -29 58 -38 84 -46 92 -26 10 28 -22 72 -80 112 -31
21 -61 41 -67 44 -7 3 -27 13 -45 22 -34 17 -39 18 -79 10z"/>
<path d="M9050 7173 c0 -25 6 -69 14 -97 24 -84 37 -157 45 -241 4 -44 13 -93
19 -110 6 -16 14 -52 18 -79 4 -32 13 -56 28 -70 12 -11 26 -28 29 -36 4 -8
16 -28 27 -45 10 -16 31 -52 45 -80 15 -27 33 -57 41 -66 8 -8 14 -23 14 -32
0 -9 5 -19 11 -22 5 -4 15 -19 22 -33 l11 -27 3 26 c3 16 -16 63 -52 132 -30
58 -55 115 -55 126 0 10 -7 24 -15 31 -9 8 -12 22 -8 41 3 16 1 29 -4 29 -17
0 -36 76 -29 113 5 25 3 36 -7 40 -13 5 -20 34 -34 152 -3 28 -9 55 -14 61 -5
6 -13 37 -18 70 -16 98 -23 118 -48 142 -35 32 -43 28 -43 -25z"/>
<path d="M8020 7186 c0 -22 3 -27 11 -19 8 8 8 16 0 30 -9 16 -10 14 -11 -11z"/>
<path d="M7980 7128 c-12 -28 -30 -56 -50 -78 -8 -9 -27 -30 -41 -46 -28 -32
-128 -124 -134 -124 -2 0 -19 -13 -37 -30 -18 -16 -40 -30 -50 -30 -9 0 -21
-6 -25 -14 -4 -8 -17 -15 -28 -18 -11 -2 -19 -8 -18 -13 3 -16 20 -17 34 -2 8
7 27 17 42 21 15 3 27 11 27 16 0 6 9 10 20 10 11 0 20 6 20 14 0 7 13 16 29
19 15 3 52 28 82 55 30 27 70 58 89 68 24 13 34 25 32 37 -2 9 4 20 12 23 9 3
16 16 16 28 0 12 4 26 10 32 11 11 2 54 -11 54 -5 0 -14 -10 -19 -22z"/>
<path d="M8804 7091 c9 -9 16 -21 16 -24 0 -9 38 -47 48 -47 4 0 15 -12 25
-28 11 -15 30 -35 44 -46 l25 -19 -7 24 c-4 13 -25 40 -46 60 -21 20 -39 42
-39 48 0 6 -19 20 -41 30 -38 19 -40 19 -25 2z"/>
<path d="M8083 6913 c9 -2 25 -2 35 0 9 3 1 5 -18 5 -19 0 -27 -2 -17 -5z"/>
<path d="M6640 6845 c-7 -8 -18 -15 -25 -15 -22 0 -103 -88 -124 -136 -26 -58
-26 -85 -2 -132 21 -41 59 -78 111 -107 63 -36 229 -22 338 28 35 17 75 75 74
111 -2 58 -26 66 -172 59 l-128 -6 -7 32 c-4 17 -4 65 0 106 l7 75 -30 0 c-16
0 -35 -7 -42 -15z"/>
<path d="M9149 6440 c-3 -175 -8 -261 -18 -297 -6 -21 -13 -68 -16 -105 -4
-37 -11 -70 -16 -73 -5 -4 -9 -22 -9 -40 0 -19 -6 -54 -13 -77 -8 -24 -24 -77
-36 -118 -12 -41 -27 -83 -32 -92 -5 -10 -9 -23 -9 -29 0 -6 -6 -25 -14 -42
-8 -18 -24 -54 -36 -82 -124 -290 -375 -633 -616 -842 -92 -80 -287 -223 -334
-246 -8 -4 -35 -19 -60 -33 -66 -38 -149 -80 -195 -99 -64 -26 -108 -46 -138
-61 -16 -8 -35 -14 -42 -14 -8 0 -29 -6 -47 -14 -31 -13 -55 -20 -201 -60
-235 -65 -604 -88 -862 -53 -203 27 -268 40 -405 83 -25 8 -52 14 -61 14 -9 0
-30 7 -45 15 -16 8 -36 15 -44 15 -9 0 -20 4 -25 8 -6 4 -37 18 -70 31 -57 22
-237 108 -280 134 -17 11 -62 38 -120 74 -11 7 -27 16 -35 20 -8 4 -19 11 -25
15 -5 5 -50 39 -100 75 -49 37 -103 79 -120 92 -69 58 -247 245 -303 318 -33
43 -68 88 -79 100 -10 12 -28 38 -38 57 -11 20 -23 36 -27 36 -5 0 -8 4 -8 9
0 6 -13 30 -30 54 -16 25 -30 49 -30 54 0 6 -9 20 -20 33 -11 13 -20 29 -20
37 0 7 -4 13 -9 13 -5 0 -15 15 -22 33 l-13 32 -3 -27 c-3 -17 5 -42 21 -67
14 -22 26 -46 26 -52 0 -6 24 -49 53 -96 28 -46 63 -104 77 -128 14 -24 35
-55 47 -67 12 -13 39 -46 60 -74 63 -85 145 -179 159 -182 8 -2 14 -12 14 -23
0 -10 6 -19 13 -19 7 0 20 -8 28 -17 9 -10 35 -34 59 -53 57 -47 70 -60 70
-71 0 -5 5 -9 10 -9 6 0 60 -35 120 -78 61 -42 129 -88 152 -101 24 -14 47
-31 51 -38 4 -7 16 -13 25 -13 9 0 26 -7 36 -15 11 -8 26 -15 34 -15 9 0 29
-10 46 -23 38 -28 72 -43 111 -52 17 -4 52 -17 78 -31 27 -13 55 -24 63 -24 8
0 11 -6 8 -15 -5 -12 0 -14 22 -9 17 3 41 -1 59 -10 17 -9 36 -16 44 -16 7 0
34 -6 60 -14 207 -65 407 -90 709 -88 117 0 236 5 265 11 29 6 88 18 132 27
44 9 100 20 125 25 25 5 77 18 115 29 39 12 87 25 108 29 21 5 44 14 50 20 6
6 26 11 44 11 22 0 33 5 33 15 0 8 12 18 27 21 15 4 38 13 52 20 14 8 32 14
39 14 12 0 22 4 79 34 17 9 38 16 47 16 8 0 19 6 23 13 4 6 37 27 73 46 36 18
79 46 96 62 17 16 33 27 36 23 4 -3 23 10 43 30 19 20 42 36 49 36 7 0 29 16
49 35 20 19 40 35 45 35 5 0 44 35 88 78 44 43 88 81 97 85 9 3 17 13 17 21 0
8 17 29 38 47 48 42 146 168 222 285 8 13 34 50 58 84 23 33 42 65 42 70 0 6
23 54 52 107 50 94 77 159 118 288 11 33 25 74 30 92 18 54 37 136 45 188 4
28 11 55 16 61 5 6 11 37 13 70 3 32 11 100 20 149 10 62 13 129 9 210 -6 145
-22 187 -24 65z"/>
<path d="M7025 6370 c-7 -12 2 -30 16 -30 5 0 9 9 9 20 0 21 -15 27 -25 10z"/>
<path d="M6973 6298 c-41 -47 -88 -78 -116 -78 -12 0 -28 -5 -34 -11 -7 -7
-46 -14 -87 -17 -64 -4 -77 -2 -82 12 -3 9 -17 16 -30 16 -14 0 -37 13 -54 30
-31 32 -50 38 -50 18 1 -23 94 -84 148 -97 56 -14 177 -8 187 10 4 5 17 9 30
9 13 0 40 14 58 30 19 17 39 30 45 30 15 0 42 41 42 62 0 28 -25 21 -57 -14z"/>
<path d="M4490 5446 c0 -8 5 -18 10 -21 6 -3 10 1 10 9 0 8 -4 18 -10 21 -5 3
-10 -1 -10 -9z"/>
</g>
</svg>
